<svg width="48" height="48" viewBox="0 0 48 48" fill="none" xmlns="http://www.w3.org/2000/svg">
<g clip-path="url(#clip0_1_2581)">
<path d="M28 18.1801L45.62 21.6801C47.04 21.9801 48 23.1801 48 24.6001V45.0001C48 46.6601 46.66 48.0001 45 48.0001H27C27.56 48.0001 28 47.5601 28 47.0001V46.0001H45C45.54 46.0001 46 45.5601 46 45.0001V24.6001C46 24.1401 45.68 23.7201 45.22 23.6201L28 20.2201V18.1801Z" fill="#4764C3"/>
<path d="M39 28C39.56 28 40 28.44 40 29C40 29.56 39.56 30 39 30H35C34.44 30 34 29.56 34 29C34 28.44 34.44 28 35 28H39Z" fill="#4764C3"/>
<path d="M39 34C39.56 34 40 34.44 40 35C40 35.56 39.56 36 39 36H35C34.44 36 34 35.56 34 35C34 34.44 34.44 34 35 34H39Z" fill="#4764C3"/>
<path d="M39 40C39.56 40 40 40.44 40 41C40 41.56 39.56 42 39 42H35C34.44 42 34 41.56 34 41C34 40.44 34.44 40 35 40H39Z" fill="#4764C3"/>
<path d="M28 47.0001C28 47.5601 27.56 48.0001 27 48.0001C26.44 48.0001 26 47.5601 26 47.0001V46.0001V19.0001C26 18.7001 26.14 18.4201 26.36 18.2201C26.6 18.0401 26.9 17.9601 27.2 18.0201L28 18.1801V20.2201V46.0001V47.0001Z" fill="#4764C3"/>
<path d="M26 46V47C26 47.56 26.44 48 27 48H19C19.56 48 20 47.56 20 47V46H26Z" fill="#4764C3"/>
<path d="M21 10C21.56 10 22 10.44 22 11C22 11.56 21.56 12 21 12H17C16.44 12 16 11.56 16 11C16 10.44 16.44 10 17 10H21Z" fill="#4764C3"/>
<path d="M22 17C22 17.56 21.56 18 21 18H17C16.44 18 16 17.56 16 17C16 16.44 16.44 16 17 16H21C21.56 16 22 16.44 22 17Z" fill="#4764C3"/>
<path d="M21 22C21.56 22 22 22.44 22 23C22 23.56 21.56 24 21 24H17C16.44 24 16 23.56 16 23C16 22.44 16.44 22 17 22H21Z" fill="#4764C3"/>
<path d="M21 28C21.56 28 22 28.44 22 29C22 29.56 21.56 30 21 30H17C16.44 30 16 29.56 16 29C16 28.44 16.44 28 17 28H21Z" fill="#4764C3"/>
<path d="M12 29C12 29.56 11.56 30 11 30H7C6.44 30 6 29.56 6 29C6 28.44 6.44 28 7 28H11C11.56 28 12 28.44 12 29Z" fill="#4764C3"/>
<path d="M11 10C11.56 10 12 10.44 12 11C12 11.56 11.56 12 11 12H7C6.44 12 6 11.56 6 11C6 10.44 6.44 10 7 10H11Z" fill="#4764C3"/>
<path d="M11 16C11.56 16 12 16.44 12 17C12 17.56 11.56 18 11 18H7C6.44 18 6 17.56 6 17C6 16.44 6.44 16 7 16H11Z" fill="#4764C3"/>
<path d="M11 22C11.56 22 12 22.44 12 23C12 23.56 11.56 24 11 24H7C6.44 24 6 23.56 6 23C6 22.44 6.44 22 7 22H11Z" fill="#4764C3"/>
<path d="M18 37C18 36.44 17.54 36 17 36H11C10.44 36 10 36.44 10 37V46H8.00003V37C8.00003 35.34 9.34003 34 11 34H17C18.66 34 20 35.34 20 37V46H18V37Z" fill="#4764C3"/>
<path d="M10 46H18H20V47C20 47.56 19.56 48 19 48H9.00003C8.44003 48 8.00003 47.56 8.00003 47V46H10Z" fill="#4764C3"/>
<path d="M3.5 0.400022L25.48 3.74002C26.94 3.98002 28 5.22002 28 6.70002V18.18L27.2 18.02C26.9 17.96 26.6 18.04 26.36 18.22C26.14 18.42 26 18.7 26 19V6.70002C26 6.20002 25.64 5.78002 25.16 5.70002L3.18 2.38002C3.12 2.36002 3.06 2.36002 3 2.36002C2.76 2.36002 2.54 2.44002 2.36 2.60002C2.12 2.80002 2 3.06002 2 3.36002V45C2 45.56 2.46 46 3 46H8V47C8 47.56 8.44 48 9 48H3C1.34 48 0 46.66 0 45V3.36002C0 2.48002 0.38 1.64002 1.06 1.08002C1.74 0.500022 2.62 0.260022 3.5 0.400022Z" fill="#4764C3"/>
</g>
<defs>
<clipPath id="clip0_1_2581">
<rect width="48" height="48" fill="white"/>
</clipPath>
</defs>
</svg>
