<svg width="48" height="48" viewBox="0 0 48 48" fill="none" xmlns="http://www.w3.org/2000/svg">
<path d="M37.5 10.45H3C2.78783 10.45 2.58434 10.5343 2.43431 10.6843C2.28429 10.8343 2.2 11.0378 2.2 11.25V43.5C2.2 43.7122 2.28429 43.9157 2.43431 44.0657C2.58434 44.2157 2.78783 44.3 3 44.3H37.5C37.7122 44.3 37.9157 44.2157 38.0657 44.0657C38.2157 43.9157 38.3 43.7122 38.3 43.5V11.25C38.3 11.0378 38.2157 10.8343 38.0657 10.6843C37.9157 10.5343 37.7122 10.45 37.5 10.45ZM7.55 12.05H10.45V19.45H7.55V12.05ZM3.8 12.05H5.95V20.25C5.95 20.4622 6.03429 20.6657 6.18431 20.8157C6.33434 20.9657 6.53783 21.05 6.75 21.05H11.25C11.4622 21.05 11.6657 20.9657 11.8157 20.8157C11.9657 20.6657 12.05 20.4622 12.05 20.25V12.05H14.2V42.7H3.8V12.05ZM36.7 42.7H15.8V12.05H36.7V42.7Z" fill="#4764C3" stroke="#4764C3" stroke-width="0.1"/>
<path d="M33.75 39.7H33.7V39.75V41.25V41.3H33.75H35.25H35.3V41.25V39.75V39.7H35.25H33.75Z" fill="#4764C3" stroke="#4764C3" stroke-width="0.1"/>
<path d="M30.75 39.7H30.7V39.75V41.25V41.3H30.75H32.25H32.3V41.25V39.75V39.7H32.25H30.75Z" fill="#4764C3" stroke="#4764C3" stroke-width="0.1"/>
<path d="M27.75 39.7H27.7V39.75V41.25V41.3H27.75H29.25H29.3V41.25V39.75V39.7H29.25H27.75Z" fill="#4764C3" stroke="#4764C3" stroke-width="0.1"/>
<path d="M22.5 19.55H30C30.61 19.55 31.195 19.3077 31.6263 18.8763C32.0577 18.445 32.3 17.86 32.3 17.25C32.3 16.64 32.0577 16.055 31.6263 15.6237C31.195 15.1923 30.61 14.95 30 14.95H22.5C21.89 14.95 21.305 15.1923 20.8737 15.6237C20.4423 16.055 20.2 16.64 20.2 17.25C20.2 17.86 20.4423 18.445 20.8737 18.8763C21.305 19.3077 21.89 19.55 22.5 19.55ZM22.5 16.55H30C30.1857 16.55 30.3637 16.6237 30.495 16.755C30.6263 16.8863 30.7 17.0643 30.7 17.25C30.7 17.4357 30.6263 17.6137 30.495 17.745C30.3637 17.8763 30.1857 17.95 30 17.95H22.5C22.3143 17.95 22.1363 17.8763 22.005 17.745C21.8737 17.6137 21.8 17.4357 21.8 17.25C21.8 17.0643 21.8737 16.8863 22.005 16.755C22.1363 16.6237 22.3143 16.55 22.5 16.55Z" fill="#4764C3" stroke="#4764C3" stroke-width="0.1"/>
<path d="M45.75 12.05H45.8V12V10.5V10.45H45.75H39.75H39.7V10.5V12V12.05H39.75H41.95V42.7H39.75H39.7V42.75V44.25V44.3H39.75H45.75H45.8V44.25V42.75V42.7H45.75H43.55V12.05H45.75Z" fill="#4764C3" stroke="#4764C3" stroke-width="0.1"/>
<path d="M36.7 3V5.2H15.8V3V2.95H15.75H14.25H14.2V3V5.2H3.8V3V2.95H3.75H2.25H2.2V3V9V9.05H2.25H3.75H3.8V9V6.8H14.2V9V9.05H14.25H15.75H15.8V9V6.8H36.7V9V9.05H36.75H38.25H38.3V9V3V2.95H38.25H36.75H36.7V3Z" fill="#4764C3" stroke="#4764C3" stroke-width="0.1"/>
</svg>
