<svg width="48" height="48" viewBox="0 0 48 48" fill="none" xmlns="http://www.w3.org/2000/svg">
<path d="M28.5861 33.7012L35.7663 21.0397C36.9433 18.9068 37.5652 16.4849 37.5652 14.0348C37.5652 6.29635 31.4797 0 24 0C16.5204 0 10.4348 6.29635 10.4348 14.0348C10.4348 16.5141 11.063 18.9391 12.2504 21.0501L19.4129 33.7012C12.8244 34.6007 8.34784 37.3743 8.34784 40.6957C8.34784 44.8602 15.0772 48 24 48C32.9238 48 39.6522 44.8602 39.6522 40.6957C39.6522 37.3743 35.1757 34.5997 28.5861 33.7012ZM14.0682 20.0243C13.056 18.2275 12.5218 16.1562 12.5218 14.0348C12.5218 7.4473 17.6713 2.08696 24 2.08696C30.3287 2.08696 35.4783 7.4473 35.4783 14.0348C35.4783 16.1332 34.9461 18.2066 33.9444 20.0202L24 37.559L22.007 34.0466L14.0682 20.0243ZM24 45.913C16.0059 45.913 10.4348 43.1635 10.4348 40.6957C10.4348 38.713 14.1934 36.3423 20.5252 35.664L23.0922 40.1885C23.2779 40.5151 23.6244 40.7165 24 40.7165C24.3757 40.7165 24.7221 40.5151 24.9078 40.1885L27.4748 35.664C33.8056 36.3423 37.5652 38.713 37.5652 40.6957C37.5652 43.1635 31.9941 45.913 24 45.913Z" fill="#4764C3"/>
<path d="M31.3044 13.5652C31.3044 9.53739 28.0268 6.26086 24 6.26086C19.9722 6.26086 16.6957 9.53739 16.6957 13.5652C16.6957 17.593 19.9722 20.8696 24 20.8696C28.0268 20.8696 31.3044 17.593 31.3044 13.5652ZM18.7826 13.5652C18.7826 10.6883 21.1232 8.34782 24 8.34782C26.8769 8.34782 29.2174 10.6883 29.2174 13.5652C29.2174 16.4421 26.8769 18.7826 24 18.7826C21.1232 18.7826 18.7826 16.4421 18.7826 13.5652Z" fill="#4764C3"/>
</svg>
